Coordinates
version=1
nRows=13
nColumns=36
inDegrees=yes

Units are S.I. units (second, meters, Newtons, ...)
If the header above contains a line with 'inDegrees', this indicates whether rotational values are in degrees (yes) or radians (no).

endheader
time	pelvis_tilt	pelvis_list	pelvis_rotation	pelvis_tx	pelvis_ty	pelvis_tz	hip_flexion_r	hip_adduction_r	hip_rotation_r	knee_angle_r	knee_angle_r_beta	ankle_angle_r	subtalar_angle_r	mtp_angle_r	hip_flexion_l	hip_adduction_l	hip_rotation_l	knee_angle_l	knee_angle_l_beta	ankle_angle_l	subtalar_angle_l	mtp_angle_l	lumbar_extension	lumbar_bending	lumbar_rotation	arm_flex_r	arm_add_r	arm_rot_r	elbow_flex_r	pro_sup_r	arm_flex_l	arm_add_l	arm_rot_l	elbow_flex_l	pro_sup_l
      5.16666670	     -4.62456394	     -1.03245270	      1.21035608	      0.37896690	      0.98733828	     -0.04953090	      4.02686855	     -2.84314329	     -8.10341093	      3.31220090	      0.05780881	     -1.43732591	    -21.41930171	     -7.49999987	      5.08439440	     -4.05168580	     14.32461778	     13.32806130	      0.23261855	      8.68992291	    -17.63719931	     -7.49999987	     -0.43071035	     -0.33969443	     -4.98635755	    362.45981130	     -9.21701030	    399.05930959	     50.60458130	     72.06560467	    187.61550875	   -171.81617659	    216.25883797	     30.95598910	     79.17403676
      5.17083330	     -4.60822699	     -1.00630911	      1.15636093	      0.37894997	      0.98720457	     -0.04928252	      3.99042922	     -2.87760622	     -8.04070033	      3.27439381	      0.05714895	     -1.42634336	    -21.16221048	     -7.49999987	      5.02866131	     -4.04632791	     14.23306474	     13.32736088	      0.23260633	      8.55597385	    -17.71740579	     -7.49999987	     -0.47883833	     -0.30100903	     -4.83617256	    362.47119753	     -9.22808194	    399.08401257	     50.47667869	     71.93722178	    187.71211748	   -171.92605284	    216.33257975	     30.74842719	     78.89308399
      5.17500000	     -4.63134550	     -0.99496632	      1.05132747	      0.37922547	      0.98426172	     -0.04913376	      4.04458617	     -2.90537373	     -7.96226095	      3.30314264	      0.05765071	     -1.31155663	    -20.95476838	     -7.49999987	      4.99003435	     -4.04426014	     14.13335214	     13.28568022	      0.23187886	      8.45326053	    -17.96429025	     -7.49999987	     -0.53067474	     -0.24203991	     -4.53033698	    362.36750785	     -9.28779767	    398.95530465	     50.51818050	     71.49364047	    187.91331241	   -172.05135830	    216.68467048	     30.44315944	     77.72593508
      5.17916670	     -4.57950801	     -1.00476637	      1.07218134	      0.37921993	      0.98428566	     -0.04910668	      3.95519712	     -2.89854066	     -7.97175089	      3.25642089	      0.05683527	     -1.19695222	    -20.69960062	     -7.49999987	      4.93771883	     -4.05596256	     14.07811515	     13.33972688	      0.23282216	      8.59045468	    -17.69859020	     -7.49999987	     -0.61514422	     -0.18073555	     -4.59061030	    362.45810126	     -9.28389680	    399.04411796	     50.44395615	     71.41121117	    187.92374374	   -172.08927934	    216.72130522	     30.37556168	     77.48808336
      5.18333330	     -4.55692022	     -1.01258203	      1.09092139	      0.37907827	      0.98716625	     -0.04911740	      3.91038087	     -2.88077449	     -8.03437496	      3.19110456	      0.05569528	     -1.23090978	    -20.64021983	     -7.49999987	      4.90144494	     -4.07206594	     14.14143393	     13.31864681	      0.23245424	      8.48288522	    -17.86595547	     -7.49999987	     -0.67465024	     -0.11834111	     -4.62911706	    362.51726911	     -9.34509590	    399.33583138	     50.59023916	     70.44200724	    187.94854643	   -172.10440622	    217.17093691	     30.41145429	     75.42819093
      5.18750000	     -4.58607024	     -1.00930738	      1.01035457	      0.37899152	      0.98685056	     -0.04900635	      3.96394299	     -2.87111932	     -8.02935612	      3.16967648	      0.05532129	     -1.23755415	    -20.52984833	     -7.49999987	      4.91046388	     -4.07211456	     14.06288571	     13.31358144	      0.23236583	      8.33491119	    -17.98719949	     -7.49999987	     -0.59822830	     -0.10124216	     -4.64837672	    362.70941255	     -9.36506581	    399.81783487	     50.28493847	     70.86834111	    187.96289511	   -172.04387379	    217.29091878	     30.34723585	     76.03368514
      5.19166670	     -4.43671434	     -1.01000870	      1.01565777	      0.37906127	      0.98707237	     -0.04901715	      3.76786377	     -2.85027198	     -8.15893527	      3.08411321	      0.05382793	     -1.19195829	    -20.29799709	     -7.49999987	      4.73059521	     -4.08350194	     13.99183621	     13.29749182	      0.23208501	      8.34154839	    -17.89709159	     -7.49999987	     -0.83724244	     -0.05601571	     -4.50080297	    362.54656568	     -9.27012703	    399.08998193	     50.32338399	     70.71813186	    188.04066871	   -172.18443375	    216.91790805	     30.28351494	     75.80024510
      5.19583330	     -4.47729664	     -1.01336100	      0.93133214	      0.37895191	      0.98679998	     -0.04881661	      3.85322859	     -2.83458286	     -8.15388603	      3.09425134	      0.05400487	     -1.19895225	    -20.27115112	     -7.49999987	      4.75263348	     -4.08863359	     13.94051664	     13.28486445	      0.23186463	      8.23229688	    -18.06948674	     -7.49999987	     -0.76086136	     -0.01849626	     -4.53841594	    362.73859410	     -9.37026091	    399.86478916	     50.04019544	     71.09635472	    188.04806927	   -172.17491173	    217.14292728	     30.10836650	     76.22942460
      5.20000000	     -4.41467217	     -1.02340507	      0.89048650	      0.37904852	      0.98689572	     -0.04882082	      3.77399508	     -2.81417761	     -8.11877770	      3.06728436	      0.05353421	     -1.13009819	    -20.06923779	     -7.49999987	      4.65734492	     -4.10770800	     13.90980733	     13.24682189	      0.23120066	      8.22944275	    -18.11778455	     -7.49999987	     -0.88581903	      0.01496282	     -4.40247652	    362.61127897	     -9.31742587	    399.48769028	     49.95148920	     71.12930827	    188.09195137	   -172.27053063	    216.86456044	     30.08327883	     76.29012114
      5.20416670	     -4.28815720	     -1.01971998	      0.87831106	      0.37885580	      0.98684798	     -0.04882660	      3.64355882	     -2.82911000	     -8.25083511	      3.07456882	      0.05366135	     -1.14480161	    -20.10263657	     -7.49999987	      4.52359129	     -4.10381642	     13.86465534	     13.23356286	      0.23096924	      8.28633814	    -18.06054527	     -7.49999987	     -1.11611175	      0.04553399	     -4.41417308	    362.61718573	     -9.33217011	    399.19896326	     49.87762173	     71.12392279	    188.16263073	   -172.27069190	    216.73946792	     30.05833722	     76.29615800
      5.20833330	     -4.30505063	     -1.03374083	      0.79781417	      0.37890841	      0.98702078	     -0.04872909	      3.69783382	     -2.80506910	     -8.18180550	      3.09322119	      0.05398689	     -1.19049413	    -20.15413726	     -7.49999987	      4.51357251	     -4.11725764	     13.81790332	     13.20942578	      0.23054797	      8.31097458	    -18.17246825	     -7.49999987	     -1.10464283	      0.10041504	     -4.40843832	    362.86286667	     -9.48067935	    399.93823211	     49.67115644	     71.41048794	    188.23309860	   -172.20271767	    217.17827505	     30.01454666	     76.58913307
      5.21250000	     -4.25249315	     -1.06637159	      0.79393622	      0.37882601	      0.98690121	     -0.04872319	      3.64660690	     -2.78947372	     -8.22579305	      3.12151321	      0.05448068	     -1.13120436	    -20.01112010	     -7.49999987	      4.45359907	     -4.14573061	     13.81330857	     13.20582885	      0.23048519	      8.50893565	    -18.01562850	     -7.49999987	     -1.24794665	      0.20049264	     -4.28431749	    362.77944716	     -9.46307859	    399.36735147	     49.82026918	     71.26112404	    188.27940197	   -172.23682603	    216.94841725	     30.17225156	     76.38954997
      5.21666670	     -4.16753232	     -1.05544753	      0.72936760	      0.37877113	      0.98707442	     -0.04868353	      3.58270760	     -2.82372473	     -8.14570729	      3.18972802	      0.05567126	     -1.06778028	    -20.03912249	     -7.49999987	      4.33536578	     -4.12965521	     13.81011010	     13.18720672	      0.23016018	      8.44164195	    -18.22244327	     -7.49999987	     -1.32100736	      0.20655863	     -4.37254838	    363.10155899	     -9.52567086	    400.30306353	     49.68593424	     71.64534525	    188.31192167	   -172.10032289	    217.35649051	     30.10864897	     76.90144423
